<svg version="1.1" id="Layer_1" xmlns="http://www.w3.org/2000/svg" xmlns:xlink="http://www.w3.org/1999/xlink" x="0px" y="0px"
	 width="100%" viewBox="0 0 2123 533" enable-background="new 0 0 2123 533" xml:space="preserve">
<path fill="#000000" opacity="1.000000" stroke="none" 
	d="
M2124.000000,468.000000 
	C2124.000000,488.687561 2124.000000,509.375122 2123.540283,530.531372 
	C1535.238403,531.000000 947.396301,531.000183 359.554169,530.993774 
	C357.391815,530.993713 355.229492,530.898315 353.280609,530.567139 
	C373.830292,522.942566 392.628845,512.557129 410.652954,500.790253 
	C436.175934,484.127777 458.619293,463.869354 478.550964,440.853668 
	C483.710083,434.896301 488.754639,428.926208 488.150330,419.887787 
	C487.484619,409.930756 483.263641,402.826263 473.567291,398.884796 
	C467.513763,396.424133 455.045929,397.800446 449.226990,404.100433 
	C438.000427,416.255188 426.629425,428.327789 414.613739,439.689392 
	C399.429016,454.047516 382.112701,465.619232 363.506897,475.154053 
	C354.669128,479.683136 345.625793,483.811096 336.674286,488.118134 
	C328.690216,491.959717 321.927673,503.627045 324.828583,513.492859 
	C327.389252,522.201477 332.790863,527.637146 340.483154,530.918579 
	C227.770615,530.989624 115.507530,530.989624 3.134784,530.989624 
	C3.071257,529.827881 3.005304,529.184631 3.005269,528.541382 
	C3.000388,438.878143 2.996986,349.214935 3.035803,259.551727 
	C3.036315,258.367798 3.575134,257.184174 4.053117,256.376068 
	C5.162900,263.035309 5.958979,269.339844 7.024574,275.598511 
	C10.322144,294.966583 16.132086,313.609039 24.234982,331.468201 
	C33.897457,352.764740 46.678497,372.193939 62.268135,389.557861 
	C75.063728,403.809692 89.344986,416.560455 105.444954,427.164154 
	C124.369804,439.628418 144.492950,449.331421 166.153717,456.212524 
	C187.916412,463.126068 210.183273,466.027832 232.813660,466.916229 
	C238.558929,467.141785 244.371933,466.579895 250.106262,465.948151 
	C261.660248,464.675293 273.348938,463.895355 284.681244,461.493103 
	C307.756989,456.601410 329.616028,448.292542 350.206482,436.504059 
	C366.384705,427.241699 381.192230,416.232208 394.715271,403.570862 
	C402.656860,396.135284 409.872559,387.851379 416.838440,379.470093 
	C422.322784,372.871399 427.922638,366.251038 427.153046,356.384155 
	C426.390167,346.603485 421.019775,339.199707 410.486023,335.850647 
	C402.466949,333.301117 391.162445,337.335632 386.037781,343.476135 
	C378.071198,353.021912 369.876770,362.439392 361.099060,371.232635 
	C345.887238,386.471313 327.769897,397.456207 308.059479,406.062012 
	C287.739258,414.934052 266.424622,419.433411 244.496841,420.864868 
	C229.179108,421.864838 213.961060,420.085724 198.815826,417.151154 
	C164.311691,410.465576 134.583771,394.541260 108.804092,371.129639 
	C96.112953,359.604279 85.723106,346.084839 76.586647,331.430023 
	C59.179024,303.508270 50.976387,272.939087 49.199001,240.529144 
	C48.616081,229.899887 49.572197,219.022446 51.196529,208.469711 
	C54.665462,185.933182 61.718197,164.485611 73.080742,144.546661 
	C85.686882,122.425468 101.711662,103.182663 121.913643,87.738892 
	C151.567245,65.069656 185.202271,51.999451 222.441544,49.135887 
	C241.912704,47.638622 261.404053,49.361263 280.320221,54.294750 
	C301.427826,59.799782 321.352295,68.361443 339.370544,80.899849 
	C352.227448,89.846611 364.417999,99.535011 374.393799,111.804466 
	C379.531067,118.122932 384.609436,124.693802 390.744873,129.947159 
	C399.463501,137.412354 409.203583,136.225830 416.741119,131.554565 
	C425.529297,126.108208 429.313721,114.920624 426.097412,105.342087 
	C422.312103,94.068840 413.781921,85.993492 405.953430,77.795219 
	C396.631317,68.032738 386.384674,59.046719 375.867218,50.555920 
	C358.330109,36.398125 338.545837,25.999420 317.492889,17.986244 
	C299.714752,11.219537 281.441681,6.627129 262.459259,4.934506 
	C257.963379,4.533616 253.500809,3.759278 249.475769,3.083732 
	C251.928085,3.007159 253.927536,3.000444 255.927002,3.000443 
	C878.617981,2.999990 1501.308960,3.000000 2124.000000,3.000000 
	C2124.000000,96.020897 2124.000000,189.041794 2123.604980,282.543213 
	C2122.807617,282.199738 2122.175293,281.412109 2122.038330,280.546112 
	C2120.551514,271.155273 2117.097656,262.488007 2110.207520,255.965744 
	C2102.160645,248.348846 2092.036621,244.088699 2081.440186,241.027359 
	C2071.144287,238.052841 2060.798828,235.226898 2050.596924,231.955612 
	C2040.283447,228.648544 2033.533447,217.707382 2035.055420,207.558746 
	C2036.824707,195.761581 2046.630737,187.020050 2058.152100,187.003632 
	C2069.983643,186.986755 2081.817139,187.138794 2093.645752,186.955154 
	C2103.517822,186.801910 2110.623779,179.462509 2111.083008,170.301224 
	C2111.647705,159.042282 2103.935547,152.255402 2094.970703,152.143387 
	C2080.031250,151.956741 2064.956543,151.573975 2050.165283,153.260712 
	C2029.573486,155.608932 2015.805054,168.409561 2007.035767,186.649246 
	C2001.398193,198.375092 2000.857666,210.930832 2003.150757,223.511429 
	C2004.954712,233.407822 2008.318359,243.265961 2016.508179,249.407898 
	C2023.649658,254.763611 2032.069946,258.794525 2040.462036,262.009491 
	C2051.835693,266.366730 2063.836426,269.056091 2075.357666,273.065887 
	C2089.031738,277.824982 2094.571533,292.364288 2086.357666,305.333405 
	C2081.279785,313.351257 2073.769531,316.858032 2064.622314,316.953857 
	C2048.793213,317.119659 2032.961060,316.989166 2017.130249,317.003876 
	C2006.901733,317.013367 1999.913818,324.043701 2000.000244,334.193146 
	C2000.084595,344.089813 2007.044556,350.984711 2017.016602,350.995270 
	C2033.347290,351.012604 2049.688232,350.630493 2066.006592,351.082397 
	C2093.828613,351.852936 2118.700439,328.885986 2122.088135,303.177277 
	C2122.192871,302.381348 2123.339355,301.722656 2124.000000,301.000000 
	C2124.000000,352.354218 2124.000000,403.708466 2123.685547,455.793457 
	C2122.797119,455.755585 2122.127686,455.040558 2121.664307,454.210358 
	C2112.885010,438.481110 2099.471680,434.162476 2085.017822,437.327728 
	C2064.108398,441.906616 2054.023926,463.288727 2062.937988,483.495117 
	C2068.031982,495.041473 2077.401123,501.056458 2089.782959,501.925415 
	C2103.591309,502.894501 2114.206543,497.197418 2121.246094,485.178253 
	C2123.645752,481.081085 2121.016357,475.847229 2116.391846,474.994446 
	C2111.649902,474.120056 2108.853516,476.205994 2106.326904,480.108734 
	C2100.130859,489.679230 2084.998779,489.605042 2078.726074,480.536469 
	C2093.736816,476.379944 2108.868408,472.189972 2124.000000,468.000000 
M289.472260,319.019470 
	C286.661499,320.677216 283.940735,322.516296 281.025360,323.963196 
	C262.346100,333.233582 242.812180,336.912781 221.910812,334.155701 
	C208.665192,332.408478 196.467865,328.089294 185.215958,321.387756 
	C178.483475,317.377960 171.765533,317.226288 164.862839,318.756866 
	C155.434387,320.847382 150.511917,327.996582 149.192444,336.888062 
	C147.740784,346.670258 151.041702,355.403534 160.096375,360.393768 
	C168.636383,365.100342 177.450806,369.557617 186.601517,372.857147 
	C207.427689,380.366486 228.944778,382.473572 251.078445,380.165833 
	C265.208710,378.692566 278.776428,375.414886 291.703186,369.947876 
	C320.030640,357.967590 342.305023,338.697083 358.876007,312.703217 
	C373.051910,290.466339 379.723633,265.987335 380.834808,239.957626 
	C381.211212,231.139923 379.927887,222.211319 378.944824,213.384415 
	C377.192657,197.651306 372.036133,182.815125 364.831299,168.890015 
	C355.534058,150.920731 343.252533,134.998123 327.010071,122.719101 
	C318.062683,115.955032 308.671265,109.417892 298.620544,104.554726 
	C281.789001,96.410583 263.828003,92.131615 244.927872,90.668213 
	C231.060822,89.594521 217.618347,90.938087 204.327744,93.550407 
	C188.949249,96.573112 174.398804,102.401718 160.818253,110.540123 
	C150.401031,116.782837 145.925049,129.717102 150.943695,140.810028 
	C155.678207,151.274948 168.414749,156.804535 179.495148,152.656250 
	C185.109131,150.554504 190.238251,147.194931 195.733215,144.731049 
	C213.053146,136.965027 231.231125,134.045288 249.952072,137.164108 
	C276.448944,141.578369 297.985931,154.684021 314.499084,175.976212 
	C327.000824,192.096054 333.761444,210.484528 334.860321,230.658356 
	C335.924622,250.197861 331.128082,268.554932 321.169098,285.574554 
	C313.302917,299.017609 302.972687,309.973175 289.472260,319.019470 
M1028.634033,162.871994 
	C989.526733,144.195435 952.911804,149.390701 918.000000,175.240448 
	C918.000000,172.578339 918.000000,170.769440 918.000000,168.960541 
	C917.999939,143.968994 918.025574,118.977394 917.983276,93.985916 
	C917.971436,86.988609 912.816833,80.119431 906.394348,78.239067 
	C898.919800,76.050682 889.885376,78.491119 886.768066,84.943863 
	C884.439819,89.763344 883.185547,95.576797 883.155579,100.957092 
	C882.888428,148.939377 882.912048,196.924103 883.087830,244.907242 
	C883.116760,252.804855 883.847595,260.767456 885.034363,268.581543 
	C890.031250,301.483337 908.954163,324.625458 937.242920,340.512268 
	C957.429504,351.848907 979.664307,353.543671 1001.885559,349.672058 
	C1034.210205,344.040070 1057.457031,324.774048 1072.609131,296.347412 
	C1083.698853,275.541901 1085.742310,252.635803 1080.619141,229.796219 
	C1073.919922,199.930328 1056.264038,177.783524 1028.634033,162.871994 
M1494.984741,341.509827 
	C1507.752441,335.199799 1518.592407,326.603943 1527.936157,315.739258 
	C1541.967285,299.424377 1550.396118,280.506714 1550.716187,259.398712 
	C1551.554565,204.084595 1551.021484,148.749298 1550.969238,93.422501 
	C1550.963013,86.809792 1545.536011,79.986237 1539.328613,78.220840 
	C1532.006836,76.138512 1523.046997,78.549339 1519.975952,84.581703 
	C1517.755371,88.943146 1516.252686,94.167648 1516.171997,99.036186 
	C1515.787598,122.193764 1516.005005,145.361237 1515.989990,168.525192 
	C1515.988892,170.260681 1515.844604,171.996063 1515.710938,174.982864 
	C1511.755737,172.172180 1508.824829,169.932037 1505.742432,167.924072 
	C1483.769897,153.610687 1459.562256,149.178848 1434.013306,153.254120 
	C1405.495972,157.802902 1383.708740,173.682938 1367.699951,197.102158 
	C1353.682617,217.607956 1349.892700,240.731720 1352.795288,265.345978 
	C1355.432373,287.709259 1365.163940,306.381134 1380.714600,322.062714 
	C1396.138184,337.616089 1414.620728,347.549133 1436.750488,350.144470 
	C1456.721558,352.486664 1476.035767,350.900604 1494.984741,341.509827 
M1117.957886,263.644562 
	C1117.980713,264.810272 1117.842407,266.005493 1118.050171,267.137299 
	C1122.597656,291.931427 1134.808594,312.621033 1154.167603,328.253876 
	C1176.863159,346.580994 1203.608643,353.558685 1232.399658,348.749023 
	C1263.139282,343.613800 1287.418457,327.824951 1303.085815,300.267181 
	C1307.581543,292.359253 1306.508545,284.801270 1300.086304,278.649139 
	C1294.112305,272.926453 1284.083374,272.136505 1277.754150,277.272247 
	C1274.914795,279.576202 1273.053101,283.142303 1270.926025,286.257477 
	C1257.751953,305.552002 1239.355835,315.570892 1216.160767,315.842560 
	C1203.270996,315.993561 1191.186035,312.071777 1180.245117,304.850647 
	C1171.339111,298.972626 1164.584106,291.427856 1159.796021,281.400208 
	C1169.753296,279.073639 1179.213379,276.963074 1188.622925,274.647125 
	C1226.050293,265.435394 1263.469482,256.190338 1300.870850,246.874100 
	C1306.455200,245.483109 1310.457275,242.154312 1312.765259,236.604019 
	C1315.544800,229.919632 1313.161133,223.756302 1310.960938,217.860336 
	C1296.529907,179.188950 1268.586060,156.528381 1227.812988,151.277817 
	C1204.236084,148.241669 1181.742920,153.328384 1161.635132,167.077728 
	C1145.104370,178.381165 1131.780518,192.390259 1125.050903,211.438797 
	C1121.407104,221.752823 1119.022217,232.627121 1117.249268,243.442062 
	C1116.226929,249.678726 1117.555786,256.300812 1117.957886,263.644562 
M1729.585938,153.957886 
	C1717.642822,150.968170 1705.504639,151.220062 1693.575439,153.182632 
	C1668.197876,157.357681 1647.433228,169.939407 1631.556885,190.115662 
	C1613.558350,212.988937 1607.936279,239.191315 1611.961670,267.726593 
	C1615.505737,292.849762 1627.957886,312.708344 1647.235352,328.885651 
	C1670.203369,348.159882 1696.644653,353.868134 1725.663818,350.006348 
	C1758.662598,345.614899 1782.163086,327.040894 1798.290161,298.975189 
	C1808.686768,280.881897 1811.665649,260.934143 1809.179443,240.019836 
	C1807.753296,228.023468 1805.174927,216.397507 1799.326538,206.008804 
	C1784.006226,178.794769 1761.909668,160.076736 1729.585938,153.957886 
M686.951660,335.527924 
	C707.013428,350.890900 729.866699,354.001343 753.830078,349.401764 
	C773.928406,345.544037 789.904297,334.238647 802.327942,318.062927 
	C811.505615,306.113586 817.567322,292.515259 817.808167,277.498199 
	C818.395996,240.846832 818.021423,204.179657 817.943420,167.519043 
	C817.939026,165.443848 817.492065,163.193695 816.610596,161.327438 
	C813.228088,154.165436 804.978760,150.385666 797.484619,152.288773 
	C788.669556,154.527328 784.009033,160.221405 784.005493,168.873871 
	C783.991943,202.035233 784.042908,235.196716 783.940979,268.357758 
	C783.929382,272.124573 783.457581,275.971710 782.598145,279.640839 
	C777.187683,302.740082 753.947327,319.432648 729.869812,316.188141 
	C714.987671,314.182678 704.096069,306.845917 695.541992,295.142700 
	C689.336731,286.652954 687.125610,276.832092 687.068359,266.616821 
	C686.884644,233.789780 687.014832,200.961044 686.962830,168.133057 
	C686.959778,166.192825 686.786438,164.103043 686.064636,162.339783 
	C682.975647,154.793121 674.728821,150.254440 666.558960,152.153519 
	C659.304443,153.839813 652.886658,159.210663 652.937256,169.236725 
	C653.103821,202.230606 652.962219,235.225922 653.043274,268.220459 
	C653.054565,272.835510 653.394592,277.483856 654.017761,282.057495 
	C657.065125,304.424622 668.533386,321.724731 686.951660,335.527924 
M1952.998169,337.066467 
	C1952.998779,336.233429 1952.999878,335.400391 1952.999878,334.567352 
	C1952.998901,323.252899 1946.793213,317.002014 1935.559204,317.000122 
	C1931.727295,316.999481 1927.895020,317.024719 1924.063354,316.995117 
	C1911.354126,316.896942 1903.718872,307.343231 1903.844971,296.806549 
	C1904.257690,262.324066 1904.000000,227.833572 1904.000000,193.346161 
	C1904.000000,191.404205 1904.000000,189.462265 1904.000000,187.244186 
	C1906.251465,187.144318 1907.878052,187.013809 1909.504883,187.009781 
	C1918.001831,186.988724 1926.500488,187.109650 1934.995117,186.972046 
	C1945.711182,186.798447 1953.743164,179.738571 1953.110352,168.633591 
	C1952.526001,158.377899 1946.063232,152.004257 1934.990112,152.000595 
	C1926.326538,151.997711 1917.663086,152.013596 1908.999512,151.987457 
	C1907.414307,151.982681 1905.829590,151.816071 1904.000000,151.709961 
	C1904.000000,149.291946 1904.000000,147.470154 1904.000000,145.648376 
	C1904.000000,128.487976 1904.046753,111.327393 1903.982300,94.167229 
	C1903.944092,84.014069 1896.931274,77.921043 1885.603271,78.000038 
	C1875.988159,78.067085 1870.000977,84.176720 1870.000732,93.934998 
	C1869.999268,163.243057 1870.194824,232.552002 1869.876587,301.858582 
	C1869.785767,321.639313 1885.009399,341.709564 1903.054077,348.220978 
	C1913.771240,352.088287 1924.689697,350.714630 1935.565552,350.956238 
	C1944.965210,351.165070 1950.073608,347.167358 1952.998169,337.066467 
M526.472229,154.962021 
	C501.489502,161.007889 482.391602,175.427780 467.901367,196.303268 
	C452.670135,218.246292 449.268890,242.702774 452.965515,268.560699 
	C456.952393,296.448608 471.965942,317.473236 494.259796,333.722290 
	C506.889069,342.927246 520.989014,348.464905 536.689941,350.181946 
	C552.358276,351.895386 567.804565,351.665405 582.614197,345.961273 
	C586.222168,344.571594 590.104736,341.217377 591.666748,337.771759 
	C594.575867,331.354370 594.181946,324.171509 589.004333,318.743988 
	C584.027466,313.526886 577.690491,312.265137 570.357300,313.914398 
	C563.013306,315.566071 555.395203,316.878845 547.905945,316.835663 
	C527.205444,316.716278 511.161835,306.741241 499.012848,290.682434 
	C488.313171,276.539307 484.194489,260.503601 486.851440,242.562012 
	C489.400146,225.351395 497.579132,211.626572 510.913940,201.161743 
	C528.907166,187.041046 549.069641,183.227707 571.132446,190.494400 
	C579.441040,193.230972 589.349548,188.203201 591.996704,180.543427 
	C595.366699,170.791840 591.739136,160.057678 583.415405,157.339035 
	C565.010193,151.327744 546.263123,149.956512 526.472229,154.962021 
M232.107529,175.976807 
	C229.778107,176.019226 227.384399,175.724762 225.128967,176.155029 
	C195.336044,181.838501 173.985687,208.089859 176.898285,239.445343 
	C178.673920,258.561035 187.275192,273.168335 203.169556,283.733307 
	C229.433746,301.191010 266.343903,294.003693 284.037231,267.893646 
	C293.661163,253.691605 296.454559,237.938049 292.806213,221.466461 
	C287.360168,196.878510 269.399078,180.624268 245.159973,176.125916 
	C241.223633,175.395386 237.051666,175.934372 232.107529,175.976807 
M1762.701050,522.035706 
	C1782.815063,529.058533 1802.024048,516.785950 1805.298706,499.555634 
	C1807.390259,488.550690 1806.549438,476.824463 1805.862061,465.492065 
	C1804.697266,446.288971 1785.840942,434.718933 1768.109131,438.559814 
	C1751.367188,442.186310 1741.379761,456.175232 1743.100342,473.415527 
	C1744.835938,490.806610 1760.113403,503.201324 1777.119507,501.014435 
	C1781.697998,500.425629 1786.144165,498.808411 1790.651123,497.663239 
	C1790.941895,497.952026 1791.232544,498.240814 1791.523315,498.529602 
	C1788.538208,501.406586 1785.924683,504.872223 1782.491455,507.039307 
	C1775.079834,511.717712 1767.322510,509.644684 1759.089966,501.587463 
	C1754.770386,497.360199 1751.455811,496.946472 1747.778687,500.175934 
	C1745.014282,502.603821 1745.035889,508.752808 1748.523315,511.855621 
	C1752.677490,515.551941 1757.425537,518.580872 1762.701050,522.035706 
M1890.420166,440.858124 
	C1889.076538,440.300293 1887.768555,439.625366 1886.383789,439.202393 
	C1867.152588,433.327820 1849.345703,448.106384 1850.866333,466.167603 
	C1851.632202,475.263641 1850.988037,484.477417 1851.004517,493.637909 
	C1851.014038,498.890076 1853.472046,501.861664 1857.847168,501.986572 
	C1861.731079,502.097504 1864.988281,498.348328 1864.995483,493.699982 
	C1865.010376,484.206390 1865.027588,474.712616 1864.992310,465.219116 
	C1864.958618,456.122162 1874.801636,449.856415 1881.810425,453.371368 
	C1887.340576,456.144745 1889.943481,460.807983 1889.984131,466.894165 
	C1890.045166,476.054291 1889.853638,485.219330 1890.116455,494.372345 
	C1890.172974,496.342987 1891.200073,499.112671 1892.687012,500.007904 
	C1894.583862,501.149841 1898.085205,501.803833 1899.654297,500.775421 
	C1901.731445,499.414032 1903.692139,496.271698 1903.808838,493.805084 
	C1904.272705,484.000275 1904.041504,474.160400 1903.985962,464.333984 
	C1903.947632,457.550568 1911.542480,451.290588 1918.266602,452.929688 
	C1924.964600,454.562469 1928.934692,459.428528 1928.985229,466.769073 
	C1929.047241,475.762604 1928.983765,484.756958 1929.005859,493.750885 
	C1929.019897,499.470673 1931.030518,501.867279 1935.820679,501.985748 
	C1939.752319,502.082977 1942.954468,498.430420 1942.982544,493.577728 
	C1943.040161,483.584778 1943.308960,473.578949 1942.913086,463.601379 
	C1942.515625,453.585571 1937.932739,445.566254 1928.803101,441.047852 
	C1919.963989,436.673157 1910.551636,436.281433 1902.119873,441.713837 
	C1897.640991,444.599365 1894.584961,445.565338 1890.420166,440.858124 
M1259.939575,438.096558 
	C1250.094360,437.077515 1240.469849,436.954498 1233.016479,445.249054 
	C1228.278442,440.695526 1223.300293,438.310730 1216.923340,437.699524 
	C1199.173950,435.998322 1188.114380,447.946838 1187.141235,462.226685 
	C1186.429565,472.671539 1186.953735,483.204132 1187.024292,493.696991 
	C1187.051880,497.806183 1190.320557,501.030365 1194.124390,500.995819 
	C1198.695068,500.954285 1200.973022,498.638214 1200.990356,493.865601 
	C1201.023560,484.704895 1200.872925,475.541656 1201.037109,466.383759 
	C1201.202026,457.184448 1206.385864,451.809052 1214.524658,452.000610 
	C1221.480103,452.164307 1225.993652,457.894226 1225.998901,466.582184 
	C1226.004272,475.576447 1225.944092,484.571228 1226.022949,493.564819 
	C1226.066284,498.509888 1228.786011,501.154480 1233.352295,500.995636 
	C1237.886230,500.837921 1239.979370,498.556976 1239.992920,493.637390 
	C1240.017822,484.643219 1239.906128,475.647614 1240.026489,466.654938 
	C1240.150635,457.390686 1245.196777,451.912842 1253.253174,452.000336 
	C1260.480591,452.078827 1264.995483,457.767487 1264.999268,466.810364 
	C1265.002930,475.638062 1264.955688,484.466095 1265.016846,493.293365 
	C1265.053589,498.584930 1267.301514,500.984375 1271.975708,500.995575 
	C1276.664917,501.006805 1278.945557,498.611084 1278.981689,493.341888 
	C1279.045776,484.014923 1279.060303,474.686615 1278.964722,465.360199 
	C1278.934448,462.410187 1278.919800,459.346130 1278.151611,456.538513 
	C1275.654419,447.410858 1269.555298,441.517578 1259.939575,438.096558 
M1440.517456,493.993591 
	C1443.907227,495.988495 1447.069336,498.776855 1450.730103,499.826904 
	C1460.988159,502.769379 1470.713745,501.344330 1478.881226,494.019806 
	C1486.884888,500.047180 1489.842407,501.022888 1499.697266,501.000031 
	C1512.961182,500.969269 1524.824097,489.349121 1524.976807,476.062286 
	C1525.093628,465.900452 1525.051147,455.735840 1524.978760,445.573181 
	C1524.940063,440.153900 1522.617554,437.940643 1517.385986,438.001282 
	C1512.820557,438.054199 1511.020386,440.124542 1511.006470,445.466583 
	C1510.982300,454.630035 1511.156494,463.797150 1510.950439,472.956055 
	C1510.766113,481.147339 1505.161377,487.004761 1497.997192,486.995361 
	C1491.116333,486.986328 1486.009155,480.890717 1486.001831,472.657837 
	C1485.993652,463.494324 1486.077759,454.329865 1485.968140,445.167664 
	C1485.906250,439.988861 1483.639648,437.915131 1478.651611,438.000305 
	C1473.903442,438.081390 1472.027588,440.067383 1472.009155,445.202301 
	C1471.976318,454.365692 1472.120361,463.531403 1471.962158,472.692169 
	C1471.822144,480.809296 1465.973511,487.413971 1459.266235,486.922363 
	C1452.728271,486.443207 1446.564209,481.739410 1446.923584,472.365082 
	C1447.274292,463.215057 1447.099609,454.039398 1446.957275,444.878082 
	C1446.879150,439.856842 1444.445557,437.892181 1439.361328,437.983887 
	C1434.685303,438.068298 1432.941650,440.590912 1432.979370,444.992462 
	C1433.050781,453.322327 1433.279419,461.665192 1432.923218,469.980408 
	C1432.548218,478.737396 1433.766724,486.812256 1440.517456,493.993591 
M1352.225830,461.495392 
	C1351.784546,459.913086 1351.557739,458.229950 1350.868774,456.764069 
	C1344.531860,443.278076 1333.959595,437.464325 1319.002808,437.836395 
	C1305.922974,438.161774 1291.078125,449.229248 1290.239746,464.349182 
	C1289.264282,481.940857 1289.969971,499.627991 1290.036499,517.273315 
	C1290.049805,520.789246 1292.142822,522.682068 1295.620850,522.990112 
	C1301.361572,523.498596 1303.905396,521.232483 1303.982056,515.375488 
	C1304.060913,509.358124 1303.999512,503.338928 1303.999512,497.069366 
	C1315.929443,502.253601 1327.063232,503.228638 1337.591675,496.773041 
	C1350.409546,488.913666 1355.012207,476.987091 1352.225830,461.495392 
M1550.398315,495.152710 
	C1560.131104,502.725586 1581.672485,502.373993 1591.159302,490.405548 
	C1594.074341,486.727783 1594.387939,483.012634 1591.378418,479.888550 
	C1588.673828,477.081329 1584.758057,477.226593 1581.290039,480.199341 
	C1576.909668,483.954041 1572.231079,486.681335 1566.036499,486.063843 
	C1559.908081,485.452881 1553.958618,481.182037 1552.898315,474.999481 
	C1565.857056,474.999481 1578.623291,475.054871 1591.388794,474.976166 
	C1597.787964,474.936737 1601.085449,470.620422 1599.671997,464.413574 
	C1599.526001,463.772919 1599.181030,463.173370 1599.067505,462.530212 
	C1596.578857,448.438446 1587.525391,440.206665 1574.246216,437.432526 
	C1561.895508,434.852417 1550.718140,438.839447 1542.754517,448.948242 
	C1532.429810,462.054169 1533.180542,482.805969 1550.398315,495.152710 
M1131.052612,481.471008 
	C1130.019165,479.926422 1128.985840,478.381836 1127.952393,476.837219 
	C1128.144165,476.224792 1128.335938,475.612335 1128.527710,474.999908 
	C1140.935547,474.999908 1153.343506,475.030273 1165.751221,474.988464 
	C1173.097290,474.963684 1175.445679,472.629791 1174.960938,465.323608 
	C1173.986206,450.633972 1160.504639,436.044647 1142.172607,436.942047 
	C1117.878784,438.131378 1106.004639,460.977295 1114.326782,481.351105 
	C1120.609253,496.731293 1133.759399,501.894684 1149.680298,499.803345 
	C1156.512939,498.905823 1162.563354,495.534790 1167.171387,490.203613 
	C1169.838623,487.117615 1169.622192,482.112976 1167.079712,479.707245 
	C1164.538452,477.302643 1159.413574,477.382324 1156.643433,479.869507 
	C1147.894897,487.724243 1141.464844,488.242218 1131.052612,481.471008 
M1956.432007,453.034149 
	C1952.607422,458.357971 1952.222534,464.419128 1951.877563,470.759094 
	C1950.992432,487.023834 1965.818604,501.568787 1982.656372,501.962646 
	C2000.586304,502.382080 2015.292114,487.866699 2015.187500,469.850739 
	C2015.105591,455.724915 2005.234253,443.085541 1993.025146,439.505981 
	C1979.197144,435.451813 1964.629883,440.309723 1956.432007,453.034149 
M1360.993530,464.480499 
	C1360.675049,466.426910 1359.919189,468.416290 1360.105591,470.313080 
	C1362.033081,489.921234 1375.815063,501.603058 1393.501343,501.096680 
	C1407.455566,500.697144 1419.535034,490.997345 1422.741211,478.839935 
	C1427.270996,461.663177 1421.015381,449.195679 1408.092163,441.804779 
	C1389.771729,431.327087 1364.634766,440.649414 1360.993530,464.480499 
M1731.348755,500.089630 
	C1732.232422,498.079834 1733.819580,496.090729 1733.879395,494.056702 
	C1734.153564,484.741974 1733.731079,475.404663 1734.078003,466.094788 
	C1734.404297,457.337189 1731.479736,450.219116 1724.981934,444.488220 
	C1716.348633,436.873657 1706.455933,436.017609 1696.260254,440.176727 
	C1689.719116,442.845123 1680.570801,451.987366 1680.927856,462.741516 
	C1681.264648,472.885498 1680.988892,483.049469 1681.004150,493.204620 
	C1681.013062,499.118561 1682.745361,501.013397 1688.048218,500.999664 
	C1692.983276,500.986877 1694.959229,498.755585 1694.988403,492.945984 
	C1695.032715,484.122864 1694.995117,475.299347 1695.001465,466.476013 
	C1695.007324,458.086273 1700.181152,452.073334 1707.433472,452.011810 
	C1714.310913,451.953430 1719.956421,458.402313 1719.991821,466.442322 
	C1720.028564,474.766083 1719.999390,483.090088 1720.000000,491.414001 
	C1720.000610,500.516754 1721.432739,501.748871 1731.348755,500.089630 
M2024.000000,491.317413 
	C2024.000000,491.983032 2023.997070,492.648682 2024.000488,493.314301 
	C2024.026855,498.417511 2026.891724,501.843414 2031.258301,501.994995 
	C2035.928101,502.157104 2037.990479,499.486877 2037.997681,493.225983 
	C2038.007202,484.905640 2038.000000,476.585327 2038.000000,468.264984 
	C2038.000122,456.745972 2039.867310,454.608704 2051.354004,452.979919 
	C2056.279297,452.281525 2059.225586,449.387787 2058.928223,444.987976 
	C2058.664307,441.080536 2056.170654,438.436920 2052.383545,438.098602 
	C2037.577148,436.775726 2024.307251,446.273132 2024.029175,462.403351 
	C2023.868530,471.719391 2024.000000,481.040405 2024.000000,491.317413 
M1614.066528,451.802216 
	C1613.378662,454.166107 1612.136597,456.520599 1612.096191,458.895477 
	C1611.892578,470.888062 1611.979980,482.885986 1612.014160,494.881927 
	C1612.024902,498.625641 1613.951050,500.713287 1617.736572,500.997681 
	C1623.471680,501.428528 1625.942261,499.187805 1625.981812,493.247925 
	C1626.047363,483.418274 1625.937012,473.587372 1626.020630,463.758026 
	C1626.083618,456.364868 1630.360718,452.179108 1637.783813,452.002991 
	C1638.782959,451.979279 1639.806519,452.129303 1640.778320,451.962616 
	C1644.166382,451.381378 1645.879639,449.423401 1646.045898,445.866272 
	C1646.218384,442.171814 1645.443848,438.741119 1641.492554,438.168274 
	C1630.963013,436.641724 1619.186035,440.075470 1614.066528,451.802216 
M1667.694702,442.384979 
	C1666.005981,438.192566 1662.601196,437.325439 1658.735229,438.273376 
	C1654.890503,439.216156 1653.953979,442.284729 1653.970093,445.960663 
	C1654.039795,461.908386 1653.982544,477.856659 1654.009766,493.804626 
	C1654.018921,499.120605 1655.962769,501.030884 1661.123413,500.999695 
	C1665.964478,500.970398 1667.982178,499.012451 1667.985718,494.056183 
	C1667.998169,477.112152 1667.950439,460.168091 1667.694702,442.384979 
M1668.203491,419.587738 
	C1667.137695,418.599274 1666.214722,417.353821 1664.980469,416.668732 
	C1660.629272,414.253265 1655.430786,416.283722 1653.539917,420.973938 
	C1651.704712,425.526520 1653.854858,429.821869 1658.738159,431.358521 
	C1665.700928,433.549591 1669.659912,429.117493 1668.203491,419.587738 
z"/>
<path fill="#33485B" opacity="1.000000" stroke="none" 
	d="
M2124.000000,300.532043 
	C2123.339355,301.722656 2122.192871,302.381348 2122.088135,303.177277 
	C2118.700439,328.885986 2093.828613,351.852936 2066.006592,351.082397 
	C2049.688232,350.630493 2033.347290,351.012604 2017.016602,350.995270 
	C2007.044556,350.984711 2000.084595,344.089813 2000.000244,334.193146 
	C1999.913818,324.043701 2006.901733,317.013367 2017.130249,317.003876 
	C2032.961060,316.989166 2048.793213,317.119659 2064.622314,316.953857 
	C2073.769531,316.858032 2081.279785,313.351257 2086.357666,305.333405 
	C2094.571533,292.364288 2089.031738,277.824982 2075.357666,273.065887 
	C2063.836426,269.056091 2051.835693,266.366730 2040.462036,262.009491 
	C2032.069946,258.794525 2023.649658,254.763611 2016.508179,249.407898 
	C2008.318359,243.265961 2004.954712,233.407822 2003.150757,223.511429 
	C2000.857666,210.930832 2001.398193,198.375092 2007.035767,186.649246 
	C2015.805054,168.409561 2029.573486,155.608932 2050.165283,153.260712 
	C2064.956543,151.573975 2080.031250,151.956741 2094.970703,152.143387 
	C2103.935547,152.255402 2111.647705,159.042282 2111.083008,170.301224 
	C2110.623779,179.462509 2103.517822,186.801910 2093.645752,186.955154 
	C2081.817139,187.138794 2069.983643,186.986755 2058.152100,187.003632 
	C2046.630737,187.020050 2036.824707,195.761581 2035.055420,207.558746 
	C2033.533447,217.707382 2040.283447,228.648544 2050.596924,231.955612 
	C2060.798828,235.226898 2071.144287,238.052841 2081.440186,241.027359 
	C2092.036621,244.088699 2102.160645,248.348846 2110.207520,255.965744 
	C2117.097656,262.488007 2120.551514,271.155273 2122.038330,280.546112 
	C2122.175293,281.412109 2122.807617,282.199738 2123.604980,283.011902 
	C2124.000000,288.688049 2124.000000,294.376068 2124.000000,300.532043 
z"/>
<path fill="#FFFFFF" opacity="1.000000" stroke="none" 
	d="
M2124.000000,2.500010 
	C1501.308960,3.000000 878.617981,2.999990 255.927002,3.000443 
	C253.927536,3.000444 251.928085,3.007159 249.012161,3.018190 
	C239.054794,3.068615 230.013901,3.111589 220.508728,3.082829 
	C147.781036,3.011095 75.517578,3.011095 3.139546,3.011095 
	C3.073816,4.171765 3.005653,4.813865 3.005604,5.455969 
	C3.000435,73.785553 2.996023,142.115143 3.035925,210.444717 
	C3.036617,211.629440 3.575255,212.813828 3.919728,214.463943 
	C3.938620,228.619797 3.900660,242.310104 3.862699,256.000397 
	C3.575134,257.184174 3.036315,258.367798 3.035803,259.551727 
	C2.996986,349.214935 3.000388,438.878143 3.005269,528.541382 
	C3.005304,529.184631 3.071257,529.827881 3.134784,530.989624 
	C115.507530,530.989624 227.770615,530.989624 340.944824,530.985535 
	C345.592987,530.936768 349.330078,530.892090 353.067139,530.847473 
	C355.229492,530.898315 357.391815,530.993713 359.554169,530.993774 
	C947.396301,531.000183 1535.238403,531.000000 2123.540283,531.000000 
	C2124.000000,531.999878 2124.000000,532.999817 2124.000000,533.999756 
	C1416.406982,533.999878 708.814087,533.999878 1.110563,533.999878 
	C1.110563,356.425568 1.110563,178.851074 1.110563,1.000000 
	C3.404102,1.000000 5.813379,1.000000 8.222657,1.000000 
	C711.982727,1.000000 1415.742798,0.999378 2119.502930,1.041164 
	C2121.001953,1.041253 2122.500977,1.666686 2124.000000,2.500010 
z"/>
<path fill="#DC6641" opacity="1.000000" stroke="none" 
	d="
M2124.000000,467.539368 
	C2108.868408,472.189972 2093.736816,476.379944 2078.726074,480.536469 
	C2084.998779,489.605042 2100.130859,489.679230 2106.326904,480.108734 
	C2108.853516,476.205994 2111.649902,474.120056 2116.391846,474.994446 
	C2121.016357,475.847229 2123.645752,481.081085 2121.246094,485.178253 
	C2114.206543,497.197418 2103.591309,502.894501 2089.782959,501.925415 
	C2077.401123,501.056458 2068.031982,495.041473 2062.937988,483.495117 
	C2054.023926,463.288727 2064.108398,441.906616 2085.017822,437.327728 
	C2099.471680,434.162476 2112.885010,438.481110 2121.664307,454.210358 
	C2122.127686,455.040558 2122.797119,455.755585 2123.685547,456.262085 
	C2124.000000,459.692902 2124.000000,463.385834 2124.000000,467.539368 
M2087.997070,462.503937 
	C2093.890381,460.999786 2099.783691,459.495605 2105.919678,457.929565 
	C2100.753662,451.807068 2093.766602,449.842346 2086.645752,452.164459 
	C2080.884033,454.043365 2075.812744,460.086761 2075.469727,465.480591 
	C2079.399414,464.624268 2083.329102,463.767944 2087.997070,462.503937 
z"/>
<path fill="#DC6641" opacity="1.000000" stroke="none" 
	d="
M4.053118,256.376068 
	C3.900660,242.310104 3.938620,228.619797 4.110765,214.088196 
	C5.160910,207.132874 6.011734,201.008286 7.004692,194.906815 
	C10.375628,174.193329 16.832041,154.442535 25.852623,135.528168 
	C33.120258,120.289375 42.177555,106.212990 52.461964,92.773987 
	C64.088226,77.581543 77.416489,64.163849 92.344673,52.426800 
	C110.390274,38.238735 130.230270,26.963249 151.716171,18.655844 
	C169.438293,11.803683 187.655212,7.076228 206.551208,4.983757 
	C211.366928,4.450483 216.166183,3.768317 220.972992,3.154563 
	C230.013901,3.111589 239.054794,3.068615 248.559296,3.091183 
	C253.500809,3.759278 257.963379,4.533616 262.459259,4.934506 
	C281.441681,6.627129 299.714752,11.219537 317.492889,17.986244 
	C338.545837,25.999420 358.330109,36.398125 375.867218,50.555920 
	C386.384674,59.046719 396.631317,68.032738 405.953430,77.795219 
	C413.781921,85.993492 422.312103,94.068840 426.097412,105.342087 
	C429.313721,114.920624 425.529297,126.108208 416.741119,131.554565 
	C409.203583,136.225830 399.463501,137.412354 390.744873,129.947159 
	C384.609436,124.693802 379.531067,118.122932 374.393799,111.804466 
	C364.417999,99.535011 352.227448,89.846611 339.370544,80.899849 
	C321.352295,68.361443 301.427826,59.799782 280.320221,54.294750 
	C261.404053,49.361263 241.912704,47.638622 222.441544,49.135887 
	C185.202271,51.999451 151.567245,65.069656 121.913643,87.738892 
	C101.711662,103.182663 85.686882,122.425468 73.080742,144.546661 
	C61.718197,164.485611 54.665462,185.933182 51.196529,208.469711 
	C49.572197,219.022446 48.616081,229.899887 49.199001,240.529144 
	C50.976387,272.939087 59.179024,303.508270 76.586647,331.430023 
	C85.723106,346.084839 96.112953,359.604279 108.804092,371.129639 
	C134.583771,394.541260 164.311691,410.465576 198.815826,417.151154 
	C213.961060,420.085724 229.179108,421.864838 244.496841,420.864868 
	C266.424622,419.433411 287.739258,414.934052 308.059479,406.062012 
	C327.769897,397.456207 345.887238,386.471313 361.099060,371.232635 
	C369.876770,362.439392 378.071198,353.021912 386.037781,343.476135 
	C391.162445,337.335632 402.466949,333.301117 410.486023,335.850647 
	C421.019775,339.199707 426.390167,346.603485 427.153046,356.384155 
	C427.922638,366.251038 422.322784,372.871399 416.838440,379.470093 
	C409.872559,387.851379 402.656860,396.135284 394.715271,403.570862 
	C381.192230,416.232208 366.384705,427.241699 350.206482,436.504059 
	C329.616028,448.292542 307.756989,456.601410 284.681244,461.493103 
	C273.348938,463.895355 261.660248,464.675293 250.106262,465.948151 
	C244.371933,466.579895 238.558929,467.141785 232.813660,466.916229 
	C210.183273,466.027832 187.916412,463.126068 166.153717,456.212524 
	C144.492950,449.331421 124.369804,439.628418 105.444954,427.164154 
	C89.344986,416.560455 75.063728,403.809692 62.268135,389.557861 
	C46.678497,372.193939 33.897457,352.764740 24.234982,331.468201 
	C16.132086,313.609039 10.322144,294.966583 7.024574,275.598511 
	C5.958979,269.339844 5.162900,263.035309 4.053118,256.376068 
z"/>
<path fill="#DC6641" opacity="1.000000" stroke="none" 
	d="
M289.741394,318.768768 
	C302.972687,309.973175 313.302917,299.017609 321.169098,285.574554 
	C331.128082,268.554932 335.924622,250.197861 334.860321,230.658356 
	C333.761444,210.484528 327.000824,192.096054 314.499084,175.976212 
	C297.985931,154.684021 276.448944,141.578369 249.952072,137.164108 
	C231.231125,134.045288 213.053146,136.965027 195.733215,144.731049 
	C190.238251,147.194931 185.109131,150.554504 179.495148,152.656250 
	C168.414749,156.804535 155.678207,151.274948 150.943695,140.810028 
	C145.925049,129.717102 150.401031,116.782837 160.818253,110.540123 
	C174.398804,102.401718 188.949249,96.573112 204.327744,93.550407 
	C217.618347,90.938087 231.060822,89.594521 244.927872,90.668213 
	C263.828003,92.131615 281.789001,96.410583 298.620544,104.554726 
	C308.671265,109.417892 318.062683,115.955032 327.010071,122.719101 
	C343.252533,134.998123 355.534058,150.920731 364.831299,168.890015 
	C372.036133,182.815125 377.192657,197.651306 378.944824,213.384415 
	C379.927887,222.211319 381.211212,231.139923 380.834808,239.957626 
	C379.723633,265.987335 373.051910,290.466339 358.876007,312.703217 
	C342.305023,338.697083 320.030640,357.967590 291.703186,369.947876 
	C278.776428,375.414886 265.208710,378.692566 251.078445,380.165833 
	C228.944778,382.473572 207.427689,380.366486 186.601517,372.857147 
	C177.450806,369.557617 168.636383,365.100342 160.096375,360.393768 
	C151.041702,355.403534 147.740784,346.670258 149.192444,336.888062 
	C150.511917,327.996582 155.434387,320.847382 164.862839,318.756866 
	C171.765533,317.226288 178.483475,317.377960 185.215958,321.387756 
	C196.467865,328.089294 208.665192,332.408478 221.910812,334.155701 
	C242.812180,336.912781 262.346100,333.233582 281.025360,323.963196 
	C283.940735,322.516296 286.661499,320.677216 289.741394,318.768768 
z"/>
<path fill="#33485B" opacity="1.000000" stroke="none" 
	d="
M1028.986084,162.994537 
	C1056.264038,177.783524 1073.919922,199.930328 1080.619141,229.796219 
	C1085.742310,252.635803 1083.698853,275.541901 1072.609131,296.347412 
	C1057.457031,324.774048 1034.210205,344.040070 1001.885559,349.672058 
	C979.664307,353.543671 957.429504,351.848907 937.242920,340.512268 
	C908.954163,324.625458 890.031250,301.483337 885.034363,268.581543 
	C883.847595,260.767456 883.116760,252.804855 883.087830,244.907242 
	C882.912048,196.924103 882.888428,148.939377 883.155579,100.957092 
	C883.185547,95.576797 884.439819,89.763344 886.768066,84.943863 
	C889.885376,78.491119 898.919800,76.050682 906.394348,78.239067 
	C912.816833,80.119431 917.971436,86.988609 917.983276,93.985916 
	C918.025574,118.977394 917.999939,143.968994 918.000000,168.960541 
	C918.000000,170.769440 918.000000,172.578339 918.000000,175.240448 
	C952.911804,149.390701 989.526733,144.195435 1028.986084,162.994537 
M918.999268,241.581177 
	C918.666260,244.195374 918.096924,246.804276 918.037903,249.424637 
	C917.596985,269.018829 924.395935,285.570709 938.630249,299.198517 
	C954.384094,314.281097 972.920837,319.181122 994.260559,316.168549 
	C1025.976929,311.691010 1054.061523,277.282745 1047.142456,240.913116 
	C1040.513550,206.067642 1006.649292,180.723114 969.804260,188.220139 
	C944.169983,193.436035 924.148438,214.365387 918.999268,241.581177 
z"/>
<path fill="#33485B" opacity="1.000000" stroke="none" 
	d="
M1494.658325,341.696838 
	C1476.035767,350.900604 1456.721558,352.486664 1436.750488,350.144470 
	C1414.620728,347.549133 1396.138184,337.616089 1380.714600,322.062714 
	C1365.163940,306.381134 1355.432373,287.709259 1352.795288,265.345978 
	C1349.892700,240.731720 1353.682617,217.607956 1367.699951,197.102158 
	C1383.708740,173.682938 1405.495972,157.802902 1434.013306,153.254120 
	C1459.562256,149.178848 1483.769897,153.610687 1505.742432,167.924072 
	C1508.824829,169.932037 1511.755737,172.172180 1515.710938,174.982864 
	C1515.844604,171.996063 1515.988892,170.260681 1515.989990,168.525192 
	C1516.005005,145.361237 1515.787598,122.193764 1516.171997,99.036186 
	C1516.252686,94.167648 1517.755371,88.943146 1519.975952,84.581703 
	C1523.046997,78.549339 1532.006836,76.138512 1539.328613,78.220840 
	C1545.536011,79.986237 1550.963013,86.809792 1550.969238,93.422501 
	C1551.021484,148.749298 1551.554565,204.084595 1550.716187,259.398712 
	C1550.396118,280.506714 1541.967285,299.424377 1527.936157,315.739258 
	C1518.592407,326.603943 1507.752441,335.199799 1494.658325,341.696838 
M1512.173096,229.360580 
	C1503.725586,206.814972 1481.766602,188.335251 1455.363647,187.055206 
	C1430.501221,185.849838 1411.075928,196.175903 1397.128296,216.497482 
	C1388.774414,228.669113 1385.770874,242.297089 1386.799805,257.231232 
	C1387.815918,271.978973 1393.196777,284.578735 1402.878296,295.222260 
	C1419.274780,313.248596 1439.871948,320.296143 1463.885620,315.904175 
	C1483.022217,312.404266 1497.437866,301.445068 1507.367188,285.015289 
	C1517.833130,267.697266 1518.806641,249.131989 1512.173096,229.360580 
z"/>
<path fill="#33485B" opacity="1.000000" stroke="none" 
	d="
M1117.892090,263.196991 
	C1117.555786,256.300812 1116.226929,249.678726 1117.249268,243.442062 
	C1119.022217,232.627121 1121.407104,221.752823 1125.050903,211.438797 
	C1131.780518,192.390259 1145.104370,178.381165 1161.635132,167.077728 
	C1181.742920,153.328384 1204.236084,148.241669 1227.812988,151.277817 
	C1268.586060,156.528381 1296.529907,179.188950 1310.960938,217.860336 
	C1313.161133,223.756302 1315.544800,229.919632 1312.765259,236.604019 
	C1310.457275,242.154312 1306.455200,245.483109 1300.870850,246.874100 
	C1263.469482,256.190338 1226.050293,265.435394 1188.622925,274.647125 
	C1179.213379,276.963074 1169.753296,279.073639 1159.796021,281.400208 
	C1164.584106,291.427856 1171.339111,298.972626 1180.245117,304.850647 
	C1191.186035,312.071777 1203.270996,315.993561 1216.160767,315.842560 
	C1239.355835,315.570892 1257.751953,305.552002 1270.926025,286.257477 
	C1273.053101,283.142303 1274.914795,279.576202 1277.754150,277.272247 
	C1284.083374,272.136505 1294.112305,272.926453 1300.086304,278.649139 
	C1306.508545,284.801270 1307.581543,292.359253 1303.085815,300.267181 
	C1287.418457,327.824951 1263.139282,343.613800 1232.399658,348.749023 
	C1203.608643,353.558685 1176.863159,346.580994 1154.167603,328.253876 
	C1134.808594,312.621033 1122.597656,291.931427 1118.050171,267.137299 
	C1117.842407,266.005493 1117.980713,264.810272 1117.892090,263.196991 
M1192.072754,190.452423 
	C1163.222778,202.574432 1151.479736,230.501633 1152.709839,247.516968 
	C1192.594604,237.664490 1232.318115,227.851868 1272.399902,217.950699 
	C1254.554688,187.604172 1220.069824,179.667847 1192.072754,190.452423 
z"/>
<path fill="#33485B" opacity="1.000000" stroke="none" 
	d="
M1730.019531,153.977890 
	C1761.909668,160.076736 1784.006226,178.794769 1799.326538,206.008804 
	C1805.174927,216.397507 1807.753296,228.023468 1809.179443,240.019836 
	C1811.665649,260.934143 1808.686768,280.881897 1798.290161,298.975189 
	C1782.163086,327.040894 1758.662598,345.614899 1725.663818,350.006348 
	C1696.644653,353.868134 1670.203369,348.159882 1647.235352,328.885651 
	C1627.957886,312.708344 1615.505737,292.849762 1611.961670,267.726593 
	C1607.936279,239.191315 1613.558350,212.988937 1631.556885,190.115662 
	C1647.433228,169.939407 1668.197876,157.357681 1693.575439,153.182632 
	C1705.504639,151.220062 1717.642822,150.968170 1730.019531,153.977890 
M1744.598755,196.862946 
	C1735.494385,190.567047 1725.117310,187.690186 1714.337158,187.120316 
	C1691.195923,185.897018 1672.319214,194.727936 1658.335449,213.251999 
	C1646.557007,228.854599 1642.784668,246.342285 1646.736084,265.620697 
	C1650.179321,282.419189 1659.476196,295.150513 1672.854492,305.294769 
	C1686.574219,315.697968 1702.417847,318.693512 1718.933716,316.693390 
	C1735.392334,314.700226 1748.786133,306.473022 1759.873901,293.829437 
	C1775.640259,275.850616 1780.103516,246.610184 1769.495239,224.965256 
	C1763.886230,213.520401 1755.320068,204.684769 1744.598755,196.862946 
z"/>
<path fill="#33485B" opacity="1.000000" stroke="none" 
	d="
M686.648804,335.329041 
	C668.533386,321.724731 657.065125,304.424622 654.017761,282.057495 
	C653.394592,277.483856 653.054565,272.835510 653.043274,268.220459 
	C652.962219,235.225922 653.103821,202.230606 652.937256,169.236725 
	C652.886658,159.210663 659.304443,153.839813 666.558960,152.153519 
	C674.728821,150.254440 682.975647,154.793121 686.064636,162.339783 
	C686.786438,164.103043 686.959778,166.192825 686.962830,168.133057 
	C687.014832,200.961044 686.884644,233.789780 687.068359,266.616821 
	C687.125610,276.832092 689.336731,286.652954 695.541992,295.142700 
	C704.096069,306.845917 714.987671,314.182678 729.869812,316.188141 
	C753.947327,319.432648 777.187683,302.740082 782.598145,279.640839 
	C783.457581,275.971710 783.929382,272.124573 783.940979,268.357758 
	C784.042908,235.196716 783.991943,202.035233 784.005493,168.873871 
	C784.009033,160.221405 788.669556,154.527328 797.484619,152.288773 
	C804.978760,150.385666 813.228088,154.165436 816.610596,161.327438 
	C817.492065,163.193695 817.939026,165.443848 817.943420,167.519043 
	C818.021423,204.179657 818.395996,240.846832 817.808167,277.498199 
	C817.567322,292.515259 811.505615,306.113586 802.327942,318.062927 
	C789.904297,334.238647 773.928406,345.544037 753.830078,349.401764 
	C729.866699,354.001343 707.013428,350.890900 686.648804,335.329041 
z"/>
<path fill="#33485B" opacity="1.000000" stroke="none" 
	d="
M1952.992920,337.495789 
	C1950.073608,347.167358 1944.965210,351.165070 1935.565552,350.956238 
	C1924.689697,350.714630 1913.771240,352.088287 1903.054077,348.220978 
	C1885.009399,341.709564 1869.785767,321.639313 1869.876587,301.858582 
	C1870.194824,232.552002 1869.999268,163.243057 1870.000732,93.934998 
	C1870.000977,84.176720 1875.988159,78.067085 1885.603271,78.000038 
	C1896.931274,77.921043 1903.944092,84.014069 1903.982300,94.167229 
	C1904.046753,111.327393 1904.000000,128.487976 1904.000000,145.648376 
	C1904.000000,147.470154 1904.000000,149.291946 1904.000000,151.709961 
	C1905.829590,151.816071 1907.414307,151.982681 1908.999512,151.987457 
	C1917.663086,152.013596 1926.326538,151.997711 1934.990112,152.000595 
	C1946.063232,152.004257 1952.526001,158.377899 1953.110352,168.633591 
	C1953.743164,179.738571 1945.711182,186.798447 1934.995117,186.972046 
	C1926.500488,187.109650 1918.001831,186.988724 1909.504883,187.009781 
	C1907.878052,187.013809 1906.251465,187.144318 1904.000000,187.244186 
	C1904.000000,189.462265 1904.000000,191.404205 1904.000000,193.346161 
	C1904.000000,227.833572 1904.257690,262.324066 1903.844971,296.806549 
	C1903.718872,307.343231 1911.354126,316.896942 1924.063354,316.995117 
	C1927.895020,317.024719 1931.727295,316.999481 1935.559204,317.000122 
	C1946.793213,317.002014 1952.998901,323.252899 1952.999878,334.567352 
	C1952.999878,335.400391 1952.998779,336.233429 1952.992920,337.495789 
z"/>
<path fill="#33485B" opacity="1.000000" stroke="none" 
	d="
M526.888428,154.893616 
	C546.263123,149.956512 565.010193,151.327744 583.415405,157.339035 
	C591.739136,160.057678 595.366699,170.791840 591.996704,180.543427 
	C589.349548,188.203201 579.441040,193.230972 571.132446,190.494400 
	C549.069641,183.227707 528.907166,187.041046 510.913940,201.161743 
	C497.579132,211.626572 489.400146,225.351395 486.851440,242.562012 
	C484.194489,260.503601 488.313171,276.539307 499.012848,290.682434 
	C511.161835,306.741241 527.205444,316.716278 547.905945,316.835663 
	C555.395203,316.878845 563.013306,315.566071 570.357300,313.914398 
	C577.690491,312.265137 584.027466,313.526886 589.004333,318.743988 
	C594.181946,324.171509 594.575867,331.354370 591.666748,337.771759 
	C590.104736,341.217377 586.222168,344.571594 582.614197,345.961273 
	C567.804565,351.665405 552.358276,351.895386 536.689941,350.181946 
	C520.989014,348.464905 506.889069,342.927246 494.259796,333.722290 
	C471.965942,317.473236 456.952393,296.448608 452.965515,268.560699 
	C449.268890,242.702774 452.670135,218.246292 467.901367,196.303268 
	C482.391602,175.427780 501.489502,161.007889 526.888428,154.893616 
z"/>
<path fill="#33485B" opacity="1.000000" stroke="none" 
	d="
M232.548065,175.931686 
	C237.051666,175.934372 241.223633,175.395386 245.159973,176.125916 
	C269.399078,180.624268 287.360168,196.878510 292.806213,221.466461 
	C296.454559,237.938049 293.661163,253.691605 284.037231,267.893646 
	C266.343903,294.003693 229.433746,301.191010 203.169556,283.733307 
	C187.275192,273.168335 178.673920,258.561035 176.898285,239.445343 
	C173.985687,208.089859 195.336044,181.838501 225.128967,176.155029 
	C227.384399,175.724762 229.778107,176.019226 232.548065,175.931686 
z"/>
<path fill="#33485B" opacity="1.000000" stroke="none" 
	d="
M353.280609,530.567139 
	C349.330078,530.892090 345.592987,530.936768 341.394287,530.914490 
	C332.790863,527.637146 327.389252,522.201477 324.828583,513.492859 
	C321.927673,503.627045 328.690216,491.959717 336.674286,488.118134 
	C345.625793,483.811096 354.669128,479.683136 363.506897,475.154053 
	C382.112701,465.619232 399.429016,454.047516 414.613739,439.689392 
	C426.629425,428.327789 438.000427,416.255188 449.226990,404.100433 
	C455.045929,397.800446 467.513763,396.424133 473.567291,398.884796 
	C483.263641,402.826263 487.484619,409.930756 488.150330,419.887787 
	C488.754639,428.926208 483.710083,434.896301 478.550964,440.853668 
	C458.619293,463.869354 436.175934,484.127777 410.652954,500.790253 
	C392.628845,512.557129 373.830292,522.942566 353.280609,530.567139 
z"/>
<path fill="#33485B" opacity="1.000000" stroke="none" 
	d="
M1762.308716,521.967285 
	C1757.425537,518.580872 1752.677490,515.551941 1748.523315,511.855621 
	C1745.035889,508.752808 1745.014282,502.603821 1747.778687,500.175934 
	C1751.455811,496.946472 1754.770386,497.360199 1759.089966,501.587463 
	C1767.322510,509.644684 1775.079834,511.717712 1782.491455,507.039307 
	C1785.924683,504.872223 1788.538208,501.406586 1791.523315,498.529602 
	C1791.232544,498.240814 1790.941895,497.952026 1790.651123,497.663239 
	C1786.144165,498.808411 1781.697998,500.425629 1777.119507,501.014435 
	C1760.113403,503.201324 1744.835938,490.806610 1743.100342,473.415527 
	C1741.379761,456.175232 1751.367188,442.186310 1768.109131,438.559814 
	C1785.840942,434.718933 1804.697266,446.288971 1805.862061,465.492065 
	C1806.549438,476.824463 1807.390259,488.550690 1805.298706,499.555634 
	C1802.024048,516.785950 1782.815063,529.058533 1762.308716,521.967285 
M1783.146729,484.945587 
	C1784.265991,483.961914 1785.437622,483.031250 1786.495728,481.985687 
	C1792.768188,475.786987 1794.011475,468.064575 1789.856445,461.343018 
	C1784.909058,453.339752 1777.345581,450.484100 1768.752197,453.674774 
	C1760.547241,456.721130 1754.416748,466.706787 1758.734131,476.644562 
	C1761.978271,484.112030 1773.073486,490.509430 1783.146729,484.945587 
z"/>
<path fill="#DC6641" opacity="1.000000" stroke="none" 
	d="
M1890.796387,440.948364 
	C1894.584961,445.565338 1897.640991,444.599365 1902.119873,441.713837 
	C1910.551636,436.281433 1919.963989,436.673157 1928.803101,441.047852 
	C1937.932739,445.566254 1942.515625,453.585571 1942.913086,463.601379 
	C1943.308960,473.578949 1943.040161,483.584778 1942.982544,493.577728 
	C1942.954468,498.430420 1939.752319,502.082977 1935.820679,501.985748 
	C1931.030518,501.867279 1929.019897,499.470673 1929.005859,493.750885 
	C1928.983765,484.756958 1929.047241,475.762604 1928.985229,466.769073 
	C1928.934692,459.428528 1924.964600,454.562469 1918.266602,452.929688 
	C1911.542480,451.290588 1903.947632,457.550568 1903.985962,464.333984 
	C1904.041504,474.160400 1904.272705,484.000275 1903.808838,493.805084 
	C1903.692139,496.271698 1901.731445,499.414032 1899.654297,500.775421 
	C1898.085205,501.803833 1894.583862,501.149841 1892.687012,500.007904 
	C1891.200073,499.112671 1890.172974,496.342987 1890.116455,494.372345 
	C1889.853638,485.219330 1890.045166,476.054291 1889.984131,466.894165 
	C1889.943481,460.807983 1887.340576,456.144745 1881.810425,453.371368 
	C1874.801636,449.856415 1864.958618,456.122162 1864.992310,465.219116 
	C1865.027588,474.712616 1865.010376,484.206390 1864.995483,493.699982 
	C1864.988281,498.348328 1861.731079,502.097504 1857.847168,501.986572 
	C1853.472046,501.861664 1851.014038,498.890076 1851.004517,493.637909 
	C1850.988037,484.477417 1851.632202,475.263641 1850.866333,466.167603 
	C1849.345703,448.106384 1867.152588,433.327820 1886.383789,439.202393 
	C1887.768555,439.625366 1889.076538,440.300293 1890.796387,440.948364 
z"/>
<path fill="#33485B" opacity="1.000000" stroke="none" 
	d="
M1260.329346,438.225952 
	C1269.555298,441.517578 1275.654419,447.410858 1278.151611,456.538513 
	C1278.919800,459.346130 1278.934448,462.410187 1278.964722,465.360199 
	C1279.060303,474.686615 1279.045776,484.014923 1278.981689,493.341888 
	C1278.945557,498.611084 1276.664917,501.006805 1271.975708,500.995575 
	C1267.301514,500.984375 1265.053589,498.584930 1265.016846,493.293365 
	C1264.955688,484.466095 1265.002930,475.638062 1264.999268,466.810364 
	C1264.995483,457.767487 1260.480591,452.078827 1253.253174,452.000336 
	C1245.196777,451.912842 1240.150635,457.390686 1240.026489,466.654938 
	C1239.906128,475.647614 1240.017822,484.643219 1239.992920,493.637390 
	C1239.979370,498.556976 1237.886230,500.837921 1233.352295,500.995636 
	C1228.786011,501.154480 1226.066284,498.509888 1226.022949,493.564819 
	C1225.944092,484.571228 1226.004272,475.576447 1225.998901,466.582184 
	C1225.993652,457.894226 1221.480103,452.164307 1214.524658,452.000610 
	C1206.385864,451.809052 1201.202026,457.184448 1201.037109,466.383759 
	C1200.872925,475.541656 1201.023560,484.704895 1200.990356,493.865601 
	C1200.973022,498.638214 1198.695068,500.954285 1194.124390,500.995819 
	C1190.320557,501.030365 1187.051880,497.806183 1187.024292,493.696991 
	C1186.953735,483.204132 1186.429565,472.671539 1187.141235,462.226685 
	C1188.114380,447.946838 1199.173950,435.998322 1216.923340,437.699524 
	C1223.300293,438.310730 1228.278442,440.695526 1233.016479,445.249054 
	C1240.469849,436.954498 1250.094360,437.077515 1260.329346,438.225952 
z"/>
<path fill="#33485B" opacity="1.000000" stroke="none" 
	d="
M1440.261108,493.737427 
	C1433.766724,486.812256 1432.548218,478.737396 1432.923218,469.980408 
	C1433.279419,461.665192 1433.050781,453.322327 1432.979370,444.992462 
	C1432.941650,440.590912 1434.685303,438.068298 1439.361328,437.983887 
	C1444.445557,437.892181 1446.879150,439.856842 1446.957275,444.878082 
	C1447.099609,454.039398 1447.274292,463.215057 1446.923584,472.365082 
	C1446.564209,481.739410 1452.728271,486.443207 1459.266235,486.922363 
	C1465.973511,487.413971 1471.822144,480.809296 1471.962158,472.692169 
	C1472.120361,463.531403 1471.976318,454.365692 1472.009155,445.202301 
	C1472.027588,440.067383 1473.903442,438.081390 1478.651611,438.000305 
	C1483.639648,437.915131 1485.906250,439.988861 1485.968140,445.167664 
	C1486.077759,454.329865 1485.993652,463.494324 1486.001831,472.657837 
	C1486.009155,480.890717 1491.116333,486.986328 1497.997192,486.995361 
	C1505.161377,487.004761 1510.766113,481.147339 1510.950439,472.956055 
	C1511.156494,463.797150 1510.982300,454.630035 1511.006470,445.466583 
	C1511.020386,440.124542 1512.820557,438.054199 1517.385986,438.001282 
	C1522.617554,437.940643 1524.940063,440.153900 1524.978760,445.573181 
	C1525.051147,455.735840 1525.093628,465.900452 1524.976807,476.062286 
	C1524.824097,489.349121 1512.961182,500.969269 1499.697266,501.000031 
	C1489.842407,501.022888 1486.884888,500.047180 1478.881226,494.019806 
	C1470.713745,501.344330 1460.988159,502.769379 1450.730103,499.826904 
	C1447.069336,498.776855 1443.907227,495.988495 1440.261108,493.737427 
z"/>
<path fill="#33485B" opacity="1.000000" stroke="none" 
	d="
M1352.429199,461.876892 
	C1355.012207,476.987091 1350.409546,488.913666 1337.591675,496.773041 
	C1327.063232,503.228638 1315.929443,502.253601 1303.999512,497.069366 
	C1303.999512,503.338928 1304.060913,509.358124 1303.982056,515.375488 
	C1303.905396,521.232483 1301.361572,523.498596 1295.620850,522.990112 
	C1292.142822,522.682068 1290.049805,520.789246 1290.036499,517.273315 
	C1289.969971,499.627991 1289.264282,481.940857 1290.239746,464.349182 
	C1291.078125,449.229248 1305.922974,438.161774 1319.002808,437.836395 
	C1333.959595,437.464325 1344.531860,443.278076 1350.868774,456.764069 
	C1351.557739,458.229950 1351.784546,459.913086 1352.429199,461.876892 
M1336.568115,477.827118 
	C1340.228638,471.415527 1339.728638,465.160522 1335.565918,459.237976 
	C1331.453613,453.387146 1324.146118,450.530151 1317.652100,452.272430 
	C1310.501953,454.190735 1305.902344,458.940155 1304.151611,466.088867 
	C1302.648193,472.228149 1306.314575,479.570465 1311.989868,483.620880 
	C1318.901978,488.553894 1329.557617,487.568848 1336.568115,477.827118 
z"/>
<path fill="#33485B" opacity="1.000000" stroke="none" 
	d="
M1550.055908,495.023865 
	C1533.180542,482.805969 1532.429810,462.054169 1542.754517,448.948242 
	C1550.718140,438.839447 1561.895508,434.852417 1574.246216,437.432526 
	C1587.525391,440.206665 1596.578857,448.438446 1599.067505,462.530212 
	C1599.181030,463.173370 1599.526001,463.772919 1599.671997,464.413574 
	C1601.085449,470.620422 1597.787964,474.936737 1591.388794,474.976166 
	C1578.623291,475.054871 1565.857056,474.999481 1552.898315,474.999481 
	C1553.958618,481.182037 1559.908081,485.452881 1566.036499,486.063843 
	C1572.231079,486.681335 1576.909668,483.954041 1581.290039,480.199341 
	C1584.758057,477.226593 1588.673828,477.081329 1591.378418,479.888550 
	C1594.387939,483.012634 1594.074341,486.727783 1591.159302,490.405548 
	C1581.672485,502.373993 1560.131104,502.725586 1550.055908,495.023865 
M1569.165649,451.140991 
	C1561.293945,451.190186 1554.103882,455.977173 1553.221069,461.119904 
	C1562.959106,461.119904 1572.790161,461.119904 1583.326538,461.119904 
	C1580.216187,454.643402 1575.295532,452.719818 1569.165649,451.140991 
z"/>
<path fill="#33485B" opacity="1.000000" stroke="none" 
	d="
M1131.368164,481.675415 
	C1141.464844,488.242218 1147.894897,487.724243 1156.643433,479.869507 
	C1159.413574,477.382324 1164.538452,477.302643 1167.079712,479.707245 
	C1169.622192,482.112976 1169.838623,487.117615 1167.171387,490.203613 
	C1162.563354,495.534790 1156.512939,498.905823 1149.680298,499.803345 
	C1133.759399,501.894684 1120.609253,496.731293 1114.326782,481.351105 
	C1106.004639,460.977295 1117.878784,438.131378 1142.172607,436.942047 
	C1160.504639,436.044647 1173.986206,450.633972 1174.960938,465.323608 
	C1175.445679,472.629791 1173.097290,474.963684 1165.751221,474.988464 
	C1153.343506,475.030273 1140.935547,474.999908 1128.527710,474.999908 
	C1128.335938,475.612335 1128.144165,476.224792 1127.952393,476.837219 
	C1128.985840,478.381836 1130.019165,479.926422 1131.368164,481.675415 
M1136.943237,461.131805 
	C1144.014282,461.131805 1151.085327,461.131805 1158.320557,461.131805 
	C1156.510254,455.701569 1149.424561,451.042816 1143.534424,451.013000 
	C1137.160522,450.980713 1130.216187,455.754852 1128.236572,462.068970 
	C1131.003174,461.853088 1133.545898,461.654663 1136.943237,461.131805 
z"/>
<path fill="#DC6641" opacity="1.000000" stroke="none" 
	d="
M1956.666992,452.744385 
	C1964.629883,440.309723 1979.197144,435.451813 1993.025146,439.505981 
	C2005.234253,443.085541 2015.105591,455.724915 2015.187500,469.850739 
	C2015.292114,487.866699 2000.586304,502.382080 1982.656372,501.962646 
	C1965.818604,501.568787 1950.992432,487.023834 1951.877563,470.759094 
	C1952.222534,464.419128 1952.607422,458.357971 1956.666992,452.744385 
M1976.949341,454.005096 
	C1976.373657,454.315491 1975.782837,454.600739 1975.224854,454.940216 
	C1968.186523,459.223358 1964.466797,467.012390 1966.277710,473.655334 
	C1968.464966,481.678467 1975.967407,488.277527 1983.452148,487.854004 
	C1989.677490,487.501740 1997.985474,482.489838 2000.205200,474.677246 
	C2002.025635,468.270050 2000.102051,463.262207 1996.055664,458.542694 
	C1991.029297,452.680176 1984.753906,451.833710 1976.949341,454.005096 
z"/>
<path fill="#33485B" opacity="1.000000" stroke="none" 
	d="
M1360.998535,464.053284 
	C1364.634766,440.649414 1389.771729,431.327087 1408.092163,441.804779 
	C1421.015381,449.195679 1427.270996,461.663177 1422.741211,478.839935 
	C1419.535034,490.997345 1407.455566,500.697144 1393.501343,501.096680 
	C1375.815063,501.603058 1362.033081,489.921234 1360.105591,470.313080 
	C1359.919189,468.416290 1360.675049,466.426910 1360.998535,464.053284 
M1408.031616,476.308899 
	C1409.585571,472.401306 1410.045044,468.518280 1408.718994,464.355347 
	C1406.282715,456.706787 1398.600830,451.361938 1390.489746,452.008331 
	C1383.259033,452.584595 1376.073608,459.420898 1375.038452,466.709137 
	C1373.892578,474.777069 1378.786377,483.289978 1386.089966,485.933716 
	C1394.483398,488.971924 1401.965332,485.930542 1408.031616,476.308899 
z"/>
<path fill="#33485B" opacity="1.000000" stroke="none" 
	d="
M1731.023682,500.355530 
	C1721.432739,501.748871 1720.000610,500.516754 1720.000000,491.414001 
	C1719.999390,483.090088 1720.028564,474.766083 1719.991821,466.442322 
	C1719.956421,458.402313 1714.310913,451.953430 1707.433472,452.011810 
	C1700.181152,452.073334 1695.007324,458.086273 1695.001465,466.476013 
	C1694.995117,475.299347 1695.032715,484.122864 1694.988403,492.945984 
	C1694.959229,498.755585 1692.983276,500.986877 1688.048218,500.999664 
	C1682.745361,501.013397 1681.013062,499.118561 1681.004150,493.204620 
	C1680.988892,483.049469 1681.264648,472.885498 1680.927856,462.741516 
	C1680.570801,451.987366 1689.719116,442.845123 1696.260254,440.176727 
	C1706.455933,436.017609 1716.348633,436.873657 1724.981934,444.488220 
	C1731.479736,450.219116 1734.404297,457.337189 1734.078003,466.094788 
	C1733.731079,475.404663 1734.153564,484.741974 1733.879395,494.056702 
	C1733.819580,496.090729 1732.232422,498.079834 1731.023682,500.355530 
z"/>
<path fill="#DC6641" opacity="1.000000" stroke="none" 
	d="
M2024.000000,490.838318 
	C2024.000000,481.040405 2023.868530,471.719391 2024.029175,462.403351 
	C2024.307251,446.273132 2037.577148,436.775726 2052.383545,438.098602 
	C2056.170654,438.436920 2058.664307,441.080536 2058.928223,444.987976 
	C2059.225586,449.387787 2056.279297,452.281525 2051.354004,452.979919 
	C2039.867310,454.608704 2038.000122,456.745972 2038.000000,468.264984 
	C2038.000000,476.585327 2038.007202,484.905640 2037.997681,493.225983 
	C2037.990479,499.486877 2035.928101,502.157104 2031.258301,501.994995 
	C2026.891724,501.843414 2024.026855,498.417511 2024.000488,493.314301 
	C2023.997070,492.648682 2024.000000,491.983032 2024.000000,490.838318 
z"/>
<path fill="#33485B" opacity="1.000000" stroke="none" 
	d="
M1614.244873,451.460327 
	C1619.186035,440.075470 1630.963013,436.641724 1641.492554,438.168274 
	C1645.443848,438.741119 1646.218384,442.171814 1646.045898,445.866272 
	C1645.879639,449.423401 1644.166382,451.381378 1640.778320,451.962616 
	C1639.806519,452.129303 1638.782959,451.979279 1637.783813,452.002991 
	C1630.360718,452.179108 1626.083618,456.364868 1626.020630,463.758026 
	C1625.937012,473.587372 1626.047363,483.418274 1625.981812,493.247925 
	C1625.942261,499.187805 1623.471680,501.428528 1617.736572,500.997681 
	C1613.951050,500.713287 1612.024902,498.625641 1612.014160,494.881927 
	C1611.979980,482.885986 1611.892578,470.888062 1612.096191,458.895477 
	C1612.136597,456.520599 1613.378662,454.166107 1614.244873,451.460327 
z"/>
<path fill="#33485B" opacity="1.000000" stroke="none" 
	d="
M1667.810181,442.804504 
	C1667.950439,460.168091 1667.998169,477.112152 1667.985718,494.056183 
	C1667.982178,499.012451 1665.964478,500.970398 1661.123413,500.999695 
	C1655.962769,501.030884 1654.018921,499.120605 1654.009766,493.804626 
	C1653.982544,477.856659 1654.039795,461.908386 1653.970093,445.960663 
	C1653.953979,442.284729 1654.890503,439.216156 1658.735229,438.273376 
	C1662.601196,437.325439 1666.005981,438.192566 1667.810181,442.804504 
z"/>
<path fill="#33485B" opacity="1.000000" stroke="none" 
	d="
M1668.421875,419.930389 
	C1669.659912,429.117493 1665.700928,433.549591 1658.738159,431.358521 
	C1653.854858,429.821869 1651.704712,425.526520 1653.539917,420.973938 
	C1655.430786,416.283722 1660.629272,414.253265 1664.980469,416.668732 
	C1666.214722,417.353821 1667.137695,418.599274 1668.421875,419.930389 
z"/>
<path fill="#000000" opacity="1.000000" stroke="none" 
	d="
M220.508728,3.082829 
	C216.166183,3.768317 211.366928,4.450483 206.551208,4.983757 
	C187.655212,7.076228 169.438293,11.803683 151.716171,18.655844 
	C130.230270,26.963249 110.390274,38.238735 92.344673,52.426800 
	C77.416489,64.163849 64.088226,77.581543 52.461964,92.773987 
	C42.177555,106.212990 33.120258,120.289375 25.852623,135.528168 
	C16.832041,154.442535 10.375628,174.193329 7.004692,194.906815 
	C6.011734,201.008286 5.160910,207.132874 4.053912,213.622620 
	C3.575255,212.813828 3.036617,211.629440 3.035925,210.444717 
	C2.996023,142.115143 3.000435,73.785553 3.005604,5.455969 
	C3.005653,4.813865 3.073816,4.171765 3.139546,3.011095 
	C75.517578,3.011095 147.781036,3.011095 220.508728,3.082829 
z"/>
<path fill="#000000" opacity="1.000000" stroke="none" 
	d="
M2087.627930,462.707764 
	C2083.329102,463.767944 2079.399414,464.624268 2075.469971,465.481415 
	C2075.812744,460.086761 2080.884033,454.043365 2086.645752,452.164459 
	C2093.766602,449.842346 2100.753662,451.807068 2105.919678,457.929565 
	C2099.783691,459.495605 2093.890381,460.999786 2087.627930,462.707764 
z"/>
<path fill="#000000" opacity="1.000000" stroke="none" 
	d="
M919.001709,241.140625 
	C924.148438,214.365387 944.169983,193.436035 969.804260,188.220139 
	C1006.649292,180.723114 1040.513550,206.067642 1047.142456,240.913116 
	C1054.061523,277.282745 1025.976929,311.691010 994.260559,316.168549 
	C972.920837,319.181122 954.384094,314.281097 938.630249,299.198517 
	C924.395935,285.570709 917.596985,269.018829 918.037903,249.424637 
	C918.096924,246.804276 918.666260,244.195374 919.001709,241.140625 
z"/>
<path fill="#000000" opacity="1.000000" stroke="none" 
	d="
M1512.353760,229.710510 
	C1518.806641,249.131989 1517.833130,267.697266 1507.367188,285.015289 
	C1497.437866,301.445068 1483.022217,312.404266 1463.885620,315.904175 
	C1439.871948,320.296143 1419.274780,313.248596 1402.878296,295.222260 
	C1393.196777,284.578735 1387.815918,271.978973 1386.799805,257.231232 
	C1385.770874,242.297089 1388.774414,228.669113 1397.128296,216.497482 
	C1411.075928,196.175903 1430.501221,185.849838 1455.363647,187.055206 
	C1481.766602,188.335251 1503.725586,206.814972 1512.353760,229.710510 
z"/>
<path fill="#000000" opacity="1.000000" stroke="none" 
	d="
M1192.413330,190.269562 
	C1220.069824,179.667847 1254.554688,187.604172 1272.399902,217.950699 
	C1232.318115,227.851868 1192.594604,237.664490 1152.709839,247.516968 
	C1151.479736,230.501633 1163.222778,202.574432 1192.413330,190.269562 
z"/>
<path fill="#000000" opacity="1.000000" stroke="none" 
	d="
M1744.941162,196.985413 
	C1755.320068,204.684769 1763.886230,213.520401 1769.495239,224.965256 
	C1780.103516,246.610184 1775.640259,275.850616 1759.873901,293.829437 
	C1748.786133,306.473022 1735.392334,314.700226 1718.933716,316.693390 
	C1702.417847,318.693512 1686.574219,315.697968 1672.854492,305.294769 
	C1659.476196,295.150513 1650.179321,282.419189 1646.736084,265.620697 
	C1642.784668,246.342285 1646.557007,228.854599 1658.335449,213.251999 
	C1672.319214,194.727936 1691.195923,185.897018 1714.337158,187.120316 
	C1725.117310,187.690186 1735.494385,190.567047 1744.941162,196.985413 
z"/>
<path fill="#000000" opacity="1.000000" stroke="none" 
	d="
M1782.784912,485.080261 
	C1773.073486,490.509430 1761.978271,484.112030 1758.734131,476.644562 
	C1754.416748,466.706787 1760.547241,456.721130 1768.752197,453.674774 
	C1777.345581,450.484100 1784.909058,453.339752 1789.856445,461.343018 
	C1794.011475,468.064575 1792.768188,475.786987 1786.495728,481.985687 
	C1785.437622,483.031250 1784.265991,483.961914 1782.784912,485.080261 
z"/>
<path fill="#000000" opacity="1.000000" stroke="none" 
	d="
M1336.319336,478.110352 
	C1329.557617,487.568848 1318.901978,488.553894 1311.989868,483.620880 
	C1306.314575,479.570465 1302.648193,472.228149 1304.151611,466.088867 
	C1305.902344,458.940155 1310.501953,454.190735 1317.652100,452.272430 
	C1324.146118,450.530151 1331.453613,453.387146 1335.565918,459.237976 
	C1339.728638,465.160522 1340.228638,471.415527 1336.319336,478.110352 
z"/>
<path fill="#000000" opacity="1.000000" stroke="none" 
	d="
M1569.541992,451.297974 
	C1575.295532,452.719818 1580.216187,454.643402 1583.326538,461.119904 
	C1572.790161,461.119904 1562.959106,461.119904 1553.221069,461.119904 
	C1554.103882,455.977173 1561.293945,451.190186 1569.541992,451.297974 
z"/>
<path fill="#000000" opacity="1.000000" stroke="none" 
	d="
M1136.515869,461.294006 
	C1133.545898,461.654663 1131.003174,461.853088 1128.236572,462.068970 
	C1130.216187,455.754852 1137.160522,450.980713 1143.534424,451.013000 
	C1149.424561,451.042816 1156.510254,455.701569 1158.320557,461.131805 
	C1151.085327,461.131805 1144.014282,461.131805 1136.515869,461.294006 
z"/>
<path fill="#000000" opacity="1.000000" stroke="none" 
	d="
M1977.337646,453.882629 
	C1984.753906,451.833710 1991.029297,452.680176 1996.055664,458.542694 
	C2000.102051,463.262207 2002.025635,468.270050 2000.205200,474.677246 
	C1997.985474,482.489838 1989.677490,487.501740 1983.452148,487.854004 
	C1975.967407,488.277527 1968.464966,481.678467 1966.277710,473.655334 
	C1964.466797,467.012390 1968.186523,459.223358 1975.224854,454.940216 
	C1975.782837,454.600739 1976.373657,454.315491 1977.337646,453.882629 
z"/>
<path fill="#000000" opacity="1.000000" stroke="none" 
	d="
M1407.964600,476.688965 
	C1401.965332,485.930542 1394.483398,488.971924 1386.089966,485.933716 
	C1378.786377,483.289978 1373.892578,474.777069 1375.038452,466.709137 
	C1376.073608,459.420898 1383.259033,452.584595 1390.489746,452.008331 
	C1398.600830,451.361938 1406.282715,456.706787 1408.718994,464.355347 
	C1410.045044,468.518280 1409.585571,472.401306 1407.964600,476.688965 
z"/>
</svg>